{
  "source": "C:\\Users\\Peter\\Desktop\\stuff\\MIUN\\quantitative_research\\video_compression\\videos\\BVI-HD\\BVI-HD_CDVL_videos\\ORIG\\ParkPlay_1920x1080_50fps.mp4",
  "output": "C:\\Users\\Peter\\Desktop\\stuff\\MIUN\\quantitative_research\\video_compression\\compressed_videos\\BVI-HD\\vp9\\8\\ParkPlay_1920x1080_50fps_vp9.webm",
  "codec": "vp9",
  "ok": "Input #0, mov,mp4,m4a,3gp,3g2,mj2, from 'C:\\Users\\Peter\\Desktop\\stuff\\MIUN\\quantitative_research\\video_compression\\videos\\BVI-HD\\BVI-HD_CDVL_videos\\ORIG\\ParkPlay_1920x1080_50fps.mp4':\n  Metadata:\n    major_brand     : isom\n    minor_version   : 512\n    compatible_brands: isomiso2avc1mp41\n    encoder         : Lavf54.28.101\n  Duration: 00:00:05.00, start: 0.000000, bitrate: 620563 kb/s\n  Stream #0:0[0x1](und): Video: h264 (High 4:4:4 Predictive) (avc1 / 0x31637661), yuv420p(progressive), 1920x1080, 620558 kb/s, 50 fps, 50 tbr, 50 tbn (default)\n    Metadata:\n      handler_name    : VideoHandler\n      vendor_id       : [0][0][0][0]\n[out#0/webm @ 000002b906fbf040] Codec AVOption b:a (set bitrate (in bits/s)) has not been used for any stream. The most likely reason is either wrong type (e.g. a video option with no video streams) or that it is a private option of some decoder which was not actually used for any stream.\nStream mapping:\n  Stream #0:0 -> #0:0 (h264 (native) -> vp9 (libvpx-vp9))\nPress [q] to stop, [?] for help\n[libvpx-vp9 @ 000002b906dc0a80] v1.15.2-100-g40561f514\nOutput #0, webm, to 'C:\\Users\\Peter\\Desktop\\stuff\\MIUN\\quantitative_research\\video_compression\\compressed_videos\\BVI-HD\\vp9\\8\\ParkPlay_1920x1080_50fps_vp9.webm':\n  Metadata:\n    major_brand     : isom\n    minor_version   : 512\n    compatible_brands: isomiso2avc1mp41\n    encoder         : Lavf62.3.100\n  Stream #0:0(und): Video: vp9, yuv420p(tv, progressive), 1920x1080, q=2-31, 8000 kb/s, 50 fps, 1k tbn (default)\n    Metadata:\n      encoder         : Lavc62.11.100 libvpx-vp9\n      handler_name    : VideoHandler\n      vendor_id       : [0][0][0][0]\n    Side data:\n      cpb: bitrate max/min/avg: 0/0/0 buffer size: 8000000 vbv_delay: N/A\nframe=    0 fps=0.0 q=0.0 size=       0KiB time=N/A bitrate=N/A speed=N/A elapsed=0:00:00.51    \nframe=    1 fps=0.9 q=12.0 size=       1KiB time=00:00:00.02 bitrate= 253.6kbits/s speed=0.0174x elapsed=0:00:01.15    \nframe=    5 fps=3.0 q=50.0 size=       1KiB time=00:00:00.10 bitrate=  50.7kbits/s speed=0.0594x elapsed=0:00:01.68    \nframe=    9 fps=4.0 q=47.0 size=       1KiB time=00:00:00.18 bitrate=  28.2kbits/s speed=0.0809x elapsed=0:00:02.22    \nframe=   11 fps=4.0 q=46.0 size=       1KiB time=00:00:00.22 bitrate=  23.1kbits/s speed=0.0798x elapsed=0:00:02.75    \nframe=   15 fps=4.6 q=45.0 size=       1KiB time=00:00:00.30 bitrate=  16.9kbits/s speed=0.0915x elapsed=0:00:03.27    \nframe=   19 fps=5.0 q=45.0 size=       1KiB time=00:00:00.38 bitrate=  13.3kbits/s speed=0.0999x elapsed=0:00:03.80    \nframe=   22 fps=5.1 q=45.0 size=       1KiB time=00:00:00.44 bitrate=  11.5kbits/s speed=0.102x elapsed=0:00:04.33    \nframe=   25 fps=5.1 q=44.0 size=       1KiB time=00:00:00.50 bitrate=  10.1kbits/s speed=0.103x elapsed=0:00:04.86    \nframe=   29 fps=5.4 q=45.0 size=       1KiB time=00:00:00.58 bitrate=   8.7kbits/s speed=0.107x elapsed=0:00:05.39    \nframe=   32 fps=5.4 q=46.0 size=       1KiB time=00:00:00.64 bitrate=   7.9kbits/s speed=0.108x elapsed=0:00:05.92    \nframe=   35 fps=5.4 q=45.0 size=       1KiB time=00:00:00.70 bitrate=   7.2kbits/s speed=0.109x elapsed=0:00:06.45    \nframe=   39 fps=5.6 q=44.0 size=       1KiB time=00:00:00.78 bitrate=   6.5kbits/s speed=0.112x elapsed=0:00:06.98    \nframe=   42 fps=5.6 q=44.0 size=       1KiB time=00:00:00.84 bitrate=   6.0kbits/s speed=0.111x elapsed=0:00:07.55    \nframe=   45 fps=5.5 q=45.0 size=       1KiB time=00:00:00.90 bitrate=   5.6kbits/s speed=0.111x elapsed=0:00:08.14    \nframe=   47 fps=5.4 q=45.0 size=       1KiB time=00:00:00.94 bitrate=   5.4kbits/s speed=0.108x elapsed=0:00:08.73    \nframe=   49 fps=5.2 q=45.0 size=       1KiB time=00:00:00.98 bitrate=   5.2kbits/s speed=0.105x elapsed=0:00:09.34    \nframe=   51 fps=5.1 q=47.0 size=       1KiB time=00:00:01.02 bitrate=   5.0kbits/s speed=0.103x elapsed=0:00:09.94    \nframe=   52 fps=4.9 q=33.0 size=       1KiB time=00:00:01.04 bitrate=   4.9kbits/s speed=0.0983x elapsed=0:00:10.58    \nframe=   54 fps=4.8 q=46.0 size=       1KiB time=00:00:01.08 bitrate=   4.7kbits/s speed=0.0964x elapsed=0:00:11.20    \nframe=   56 fps=4.8 q=46.0 size=       1KiB time=00:00:01.12 bitrate=   4.5kbits/s speed=0.0953x elapsed=0:00:11.75    \nframe=   57 fps=4.6 q=46.0 size=       1KiB time=00:00:01.14 bitrate=   4.4kbits/s speed=0.0926x elapsed=0:00:12.30    \nframe=   60 fps=4.7 q=45.0 size=       1KiB time=00:00:01.20 bitrate=   4.2kbits/s speed=0.0936x elapsed=0:00:12.81    \nframe=   63 fps=4.7 q=46.0 size=       1KiB time=00:00:01.26 bitrate=   4.0kbits/s speed=0.0944x elapsed=0:00:13.34    \nframe=   64 fps=4.6 q=34.0 size=       1KiB time=00:00:01.28 bitrate=   4.0kbits/s speed=0.0921x elapsed=0:00:13.89    \nframe=   67 fps=4.6 q=45.0 size=       1KiB time=00:00:01.34 bitrate=   3.8kbits/s speed=0.0929x elapsed=0:00:14.42    \nframe=   69 fps=4.6 q=46.0 size=       1KiB time=00:00:01.38 bitrate=   3.7kbits/s speed=0.0923x elapsed=0:00:14.94    \nframe=   71 fps=4.6 q=46.0 size=       1KiB time=00:00:01.42 bitrate=   3.6kbits/s speed=0.0918x elapsed=0:00:15.46    \nframe=   73 fps=4.6 q=44.0 size=       1KiB time=00:00:01.46 bitrate=   3.5kbits/s speed=0.0913x elapsed=0:00:15.98    \nframe=   75 fps=4.5 q=44.0 size=       1KiB time=00:00:01.50 bitrate=   3.4kbits/s speed=0.0906x elapsed=0:00:16.55    \nframe=   77 fps=4.5 q=44.0 size=       1KiB time=00:00:01.54 bitrate=   3.3kbits/s speed=0.0897x elapsed=0:00:17.16    \nframe=   80 fps=4.5 q=43.0 size=       1KiB time=00:00:01.60 bitrate=   3.2kbits/s speed=0.0902x elapsed=0:00:17.73    \nframe=   81 fps=4.4 q=43.0 size=       1KiB time=00:00:01.62 bitrate=   3.1kbits/s speed=0.0882x elapsed=0:00:18.35    \nframe=   83 fps=4.4 q=44.0 size=       1KiB time=00:00:01.66 bitrate=   3.1kbits/s speed=0.0878x elapsed=0:00:18.90    \nframe=   86 fps=4.4 q=43.0 size=       1KiB time=00:00:01.72 bitrate=   2.9kbits/s speed=0.0886x elapsed=0:00:19.41    \nframe=   87 fps=4.4 q=43.0 size=       1KiB time=00:00:01.74 bitrate=   2.9kbits/s speed=0.0873x elapsed=0:00:19.93    \nframe=   90 fps=4.4 q=43.0 size=       1KiB time=00:00:01.80 bitrate=   2.8kbits/s speed=0.0879x elapsed=0:00:20.46    \nframe=   92 fps=4.4 q=43.0 size=       1KiB time=00:00:01.84 bitrate=   2.8kbits/s speed=0.0877x elapsed=0:00:20.98    \nframe=   93 fps=4.3 q=44.0 size=       1KiB time=00:00:01.86 bitrate=   2.7kbits/s speed=0.0865x elapsed=0:00:21.50    \nframe=   95 fps=4.3 q=44.0 size=       1KiB time=00:00:01.90 bitrate=   2.7kbits/s speed=0.0862x elapsed=0:00:22.05    \nframe=   97 fps=4.3 q=44.0 size=       1KiB time=00:00:01.94 bitrate=   2.6kbits/s speed=0.0858x elapsed=0:00:22.60    \nframe=   99 fps=4.3 q=45.0 size=       1KiB time=00:00:01.98 bitrate=   2.6kbits/s speed=0.0855x elapsed=0:00:23.15    \nframe=  102 fps=4.3 q=44.0 size=       1KiB time=00:00:02.04 bitrate=   2.5kbits/s speed=0.0861x elapsed=0:00:23.69    \nframe=  104 fps=4.3 q=44.0 size=       1KiB time=00:00:02.08 bitrate=   2.4kbits/s speed=0.0857x elapsed=0:00:24.26    \nframe=  105 fps=4.2 q=44.0 size=       1KiB time=00:00:02.10 bitrate=   2.4kbits/s speed=0.0846x elapsed=0:00:24.80    \nframe=  107 fps=4.2 q=44.0 size=       1KiB time=00:00:02.14 bitrate=   2.4kbits/s speed=0.0844x elapsed=0:00:25.35    \nframe=  109 fps=4.2 q=43.0 size=       1KiB time=00:00:02.18 bitrate=   2.3kbits/s speed=0.0842x elapsed=0:00:25.88    \nframe=  111 fps=4.2 q=44.0 size=       1KiB time=00:00:02.22 bitrate=   2.3kbits/s speed=0.0841x elapsed=0:00:26.38    \nframe=  113 fps=4.2 q=44.0 size=       1KiB time=00:00:02.26 bitrate=   2.2kbits/s speed=0.084x elapsed=0:00:26.91    \nframe=  115 fps=4.2 q=43.0 size=       1KiB time=00:00:02.30 bitrate=   2.2kbits/s speed=0.0838x elapsed=0:00:27.44    \nframe=  117 fps=4.2 q=44.0 size=       1KiB time=00:00:02.34 bitrate=   2.2kbits/s speed=0.0836x elapsed=0:00:28.00    \nframe=  118 fps=4.1 q=31.0 size=       1KiB time=00:00:02.36 bitrate=   2.1kbits/s speed=0.0825x elapsed=0:00:28.58    \nframe=  120 fps=4.1 q=41.0 size=       1KiB time=00:00:02.40 bitrate=   2.1kbits/s speed=0.0823x elapsed=0:00:29.15    \nframe=  122 fps=4.1 q=41.0 size=       1KiB time=00:00:02.44 bitrate=   2.1kbits/s speed=0.082x elapsed=0:00:29.73    \nframe=  124 fps=4.1 q=42.0 size=       1KiB time=00:00:02.48 bitrate=   2.0kbits/s speed=0.0817x elapsed=0:00:30.36    \nframe=  126 fps=4.1 q=43.0 size=       1KiB time=00:00:02.52 bitrate=   2.0kbits/s speed=0.0814x elapsed=0:00:30.94    \nframe=  127 fps=4.0 q=43.0 size=       1KiB time=00:00:02.54 bitrate=   2.0kbits/s speed=0.0805x elapsed=0:00:31.55    \nframe=  128 fps=4.0 q=43.0 size=       1KiB time=00:00:02.56 bitrate=   2.0kbits/s speed=0.0796x elapsed=0:00:32.14    \nframe=  130 fps=4.0 q=43.0 size=    2816KiB time=00:00:02.60 bitrate=8872.6kbits/s speed=0.0795x elapsed=0:00:32.71    \nframe=  132 fps=4.0 q=41.0 size=    2816KiB time=00:00:02.64 bitrate=8738.1kbits/s speed=0.0793x elapsed=0:00:33.27    \nframe=  134 fps=4.0 q=42.0 size=    2816KiB time=00:00:02.68 bitrate=8607.7kbits/s speed=0.0792x elapsed=0:00:33.81    \nframe=  135 fps=3.9 q=42.0 size=    2816KiB time=00:00:02.70 bitrate=8544.0kbits/s speed=0.0785x elapsed=0:00:34.38    \nframe=  137 fps=3.9 q=43.0 size=    2816KiB time=00:00:02.74 bitrate=8419.2kbits/s speed=0.0785x elapsed=0:00:34.89    \nframe=  139 fps=3.9 q=43.0 size=    2816KiB time=00:00:02.78 bitrate=8298.1kbits/s speed=0.0785x elapsed=0:00:35.40    \nframe=  141 fps=3.9 q=46.0 size=    2816KiB time=00:00:02.82 bitrate=8180.4kbits/s speed=0.0785x elapsed=0:00:35.92    \nframe=  143 fps=3.9 q=45.0 size=    2816KiB time=00:00:02.86 bitrate=8066.0kbits/s speed=0.0783x elapsed=0:00:36.51    \nframe=  145 fps=3.9 q=45.0 size=    2816KiB time=00:00:02.90 bitrate=7954.7kbits/s speed=0.0781x elapsed=0:00:37.11    \nframe=  146 fps=3.9 q=35.0 size=    2816KiB time=00:00:02.92 bitrate=7900.2kbits/s speed=0.0775x elapsed=0:00:37.67    \nframe=  148 fps=3.9 q=44.0 size=    2816KiB time=00:00:02.96 bitrate=7793.5kbits/s speed=0.0774x elapsed=0:00:38.25    \nframe=  150 fps=3.9 q=45.0 size=    2816KiB time=00:00:03.00 bitrate=7689.6kbits/s speed=0.0772x elapsed=0:00:38.87    \nframe=  151 fps=3.8 q=45.0 size=    2816KiB time=00:00:03.02 bitrate=7638.6kbits/s speed=0.0765x elapsed=0:00:39.49    \nframe=  153 fps=3.8 q=45.0 size=    2816KiB time=00:00:03.06 bitrate=7538.8kbits/s speed=0.0765x elapsed=0:00:40.01    \nframe=  155 fps=3.8 q=45.0 size=    2816KiB time=00:00:03.10 bitrate=7441.5kbits/s speed=0.0764x elapsed=0:00:40.56    \nframe=  156 fps=3.8 q=45.0 size=    2816KiB time=00:00:03.12 bitrate=7393.8kbits/s speed=0.0758x elapsed=0:00:41.15    \nframe=  157 fps=3.8 q=45.0 size=    2816KiB time=00:00:03.14 bitrate=7346.7kbits/s speed=0.0753x elapsed=0:00:41.70    \nframe=  160 fps=3.8 q=45.0 size=    2816KiB time=00:00:03.20 bitrate=7209.0kbits/s speed=0.0757x elapsed=0:00:42.24    \nframe=  161 fps=3.8 q=45.0 size=    2816KiB time=00:00:03.22 bitrate=7164.2kbits/s speed=0.0753x elapsed=0:00:42.78    \nframe=  163 fps=3.8 q=45.0 size=    2816KiB time=00:00:03.26 bitrate=7076.3kbits/s speed=0.0752x elapsed=0:00:43.33    \nframe=  163 fps=3.7 q=45.0 size=    2816KiB time=00:00:03.26 bitrate=7076.3kbits/s speed=0.0743x elapsed=0:00:43.90    \nframe=  165 fps=3.7 q=45.0 size=    2816KiB time=00:00:03.30 bitrate=6990.5kbits/s speed=0.0743x elapsed=0:00:44.42    \nframe=  167 fps=3.7 q=44.0 size=    2816KiB time=00:00:03.34 bitrate=6906.8kbits/s speed=0.0743x elapsed=0:00:44.96    \nframe=  169 fps=3.7 q=45.0 size=    2816KiB time=00:00:03.38 bitrate=6825.1kbits/s speed=0.0743x elapsed=0:00:45.48    \nframe=  170 fps=3.7 q=36.0 size=    2816KiB time=00:00:03.40 bitrate=6784.9kbits/s speed=0.0739x elapsed=0:00:46.01    \nframe=  172 fps=3.7 q=44.0 size=    2816KiB time=00:00:03.44 bitrate=6706.0kbits/s speed=0.0739x elapsed=0:00:46.57    \nframe=  174 fps=3.7 q=45.0 size=    2816KiB time=00:00:03.48 bitrate=6628.9kbits/s speed=0.0738x elapsed=0:00:47.12    \nframe=  175 fps=3.7 q=45.0 size=    2816KiB time=00:00:03.50 bitrate=6591.0kbits/s speed=0.0734x elapsed=0:00:47.66    \nframe=  177 fps=3.7 q=45.0 size=    2816KiB time=00:00:03.54 bitrate=6516.6kbits/s speed=0.0735x elapsed=0:00:48.18    \nframe=  179 fps=3.7 q=45.0 size=    2816KiB time=00:00:03.58 bitrate=6443.8kbits/s speed=0.0735x elapsed=0:00:48.71    \nframe=  181 fps=3.7 q=45.0 size=    2816KiB time=00:00:03.62 bitrate=6372.6kbits/s speed=0.0735x elapsed=0:00:49.27    \nframe=  183 fps=3.7 q=46.0 size=    2816KiB time=00:00:03.66 bitrate=6302.9kbits/s speed=0.0734x elapsed=0:00:49.87    \nframe=  185 fps=3.7 q=45.0 size=    2816KiB time=00:00:03.70 bitrate=6234.8kbits/s speed=0.0733x elapsed=0:00:50.47    \nframe=  187 fps=3.7 q=46.0 size=    2816KiB time=00:00:03.74 bitrate=6168.1kbits/s speed=0.0733x elapsed=0:00:51.05    \nframe=  187 fps=3.6 q=46.0 size=    2816KiB time=00:00:03.74 bitrate=6168.1kbits/s speed=0.0725x elapsed=0:00:51.61    \nframe=  189 fps=3.6 q=43.0 size=    2816KiB time=00:00:03.78 bitrate=6102.8kbits/s speed=0.0725x elapsed=0:00:52.14    \nframe=  191 fps=3.6 q=42.0 size=    2816KiB time=00:00:03.82 bitrate=6038.9kbits/s speed=0.0725x elapsed=0:00:52.66    \nframe=  193 fps=3.6 q=43.0 size=    2816KiB time=00:00:03.86 bitrate=5976.3kbits/s speed=0.0726x elapsed=0:00:53.19    \nframe=  195 fps=3.6 q=43.0 size=    2816KiB time=00:00:03.90 bitrate=5915.0kbits/s speed=0.0725x elapsed=0:00:53.76    \nframe=  197 fps=3.6 q=43.0 size=    2816KiB time=00:00:03.94 bitrate=5855.0kbits/s speed=0.0725x elapsed=0:00:54.32    \nframe=  198 fps=3.6 q=43.0 size=    2816KiB time=00:00:03.96 bitrate=5825.4kbits/s speed=0.0722x elapsed=0:00:54.88    \nframe=  200 fps=3.6 q=46.0 size=    2816KiB time=00:00:04.00 bitrate=5767.2kbits/s speed=0.0722x elapsed=0:00:55.42    \nframe=  203 fps=3.6 q=45.0 size=    2816KiB time=00:00:04.06 bitrate=5681.9kbits/s speed=0.0726x elapsed=0:00:55.95    \nframe=  205 fps=3.6 q=37.0 size=    2816KiB time=00:00:04.10 bitrate=5626.5kbits/s speed=0.0726x elapsed=0:00:56.50    \nframe=  207 fps=3.6 q=44.0 size=    2816KiB time=00:00:04.14 bitrate=5572.1kbits/s speed=0.0725x elapsed=0:00:57.09    \nframe=  209 fps=3.6 q=45.0 size=    2816KiB time=00:00:04.18 bitrate=5518.8kbits/s speed=0.0725x elapsed=0:00:57.65    \nframe=  210 fps=3.6 q=45.0 size=    2816KiB time=00:00:04.20 bitrate=5492.5kbits/s speed=0.0721x elapsed=0:00:58.23    \nframe=  213 fps=3.6 q=44.0 size=    2816KiB time=00:00:04.24 bitrate=5440.7kbits/s speed=0.0721x elapsed=0:00:58.77    \nframe=  214 fps=3.6 q=44.0 size=    2816KiB time=00:00:04.28 bitrate=5389.9kbits/s speed=0.0721x elapsed=0:00:59.33    \nframe=  216 fps=3.6 q=45.0 size=    2816KiB time=00:00:04.32 bitrate=5340.0kbits/s speed=0.0721x elapsed=0:00:59.87    \nframe=  218 fps=3.6 q=45.0 size=    2816KiB time=00:00:04.36 bitrate=5291.0kbits/s speed=0.0721x elapsed=0:01:00.43    \nframe=  221 fps=3.6 q=44.0 size=    2816KiB time=00:00:04.42 bitrate=5219.2kbits/s speed=0.0725x elapsed=0:01:00.96    \nframe=  223 fps=3.6 q=36.0 size=    2816KiB time=00:00:04.46 bitrate=5172.3kbits/s speed=0.0725x elapsed=0:01:01.50    \nframe=  226 fps=3.6 q=45.0 size=    2816KiB time=00:00:04.52 bitrate=5103.7kbits/s speed=0.0729x elapsed=0:01:02.01    \nframe=  226 fps=3.6 q=45.0 size=    2816KiB time=00:00:04.52 bitrate=5103.7kbits/s speed=0.0722x elapsed=0:01:02.56    \nframe=  226 fps=3.6 q=45.0 size=    2816KiB time=00:00:04.52 bitrate=5103.7kbits/s speed=0.0716x elapsed=0:01:03.08    \nframe=  226 fps=3.6 q=45.0 size=    2816KiB time=00:00:04.52 bitrate=5103.7kbits/s speed=0.071x elapsed=0:01:03.63    \nframe=  226 fps=3.5 q=45.0 size=    2816KiB time=00:00:04.52 bitrate=5103.7kbits/s speed=0.0705x elapsed=0:01:04.14    \nframe=  226 fps=3.5 q=45.0 size=    2816KiB time=00:00:04.52 bitrate=5103.7kbits/s speed=0.0699x elapsed=0:01:04.66    \nframe=  226 fps=3.5 q=45.0 size=    2816KiB time=00:00:04.52 bitrate=5103.7kbits/s speed=0.0693x elapsed=0:01:05.24    \nframe=  226 fps=3.4 q=45.0 size=    2816KiB time=00:00:04.52 bitrate=5103.7kbits/s speed=0.0687x elapsed=0:01:05.76    \nframe=  226 fps=3.4 q=45.0 size=    2816KiB time=00:00:04.52 bitrate=5103.7kbits/s speed=0.0682x elapsed=0:01:06.32    \n[out#0/webm @ 000002b906fbf040] video:5505KiB audio:0KiB subtitle:0KiB other streams:0KiB global headers:0KiB muxing overhead: 0.044175%\nframe=  250 fps=3.8 q=46.0 Lsize=    5507KiB time=00:00:05.00 bitrate=9022.6kbits/s speed=0.0752x elapsed=0:01:06.48    \n",
  "seconds": 66.79855608940125,
  "probe_out": {}
}